<svg width="16" height="16" viewBox="0 0 16 16" fill="none" xmlns="http://www.w3.org/2000/svg">
<path d="M2 8V4.4H4.7V3.8C4.7 3.56362 4.74656 3.32956 4.83702 3.11117C4.92748 2.89278 5.06006 2.69435 5.22721 2.52721C5.39435 2.36006 5.59278 2.22748 5.81117 2.13702C6.02956 2.04656 6.26362 2 6.5 2C6.73638 2 6.97044 2.04656 7.18883 2.13702C7.40722 2.22748 7.60565 2.36006 7.77279 2.52721C7.93994 2.69435 8.07253 2.89278 8.16298 3.11117C8.25344 3.32956 8.3 3.56362 8.3 3.8V4.4H11V8H12.2C12.6774 8 13.1352 8.18964 13.4728 8.52721C13.8104 8.86477 14 9.32261 14 9.8C14 10.2774 13.8104 10.7352 13.4728 11.0728C13.1352 11.4104 12.6774 11.6 12.2 11.6H11V14H2V11.6H3.2C3.67739 11.6 4.13523 11.4104 4.47279 11.0728C4.81036 10.7352 5 10.2774 5 9.8C5 9.32261 4.81036 8.86477 4.47279 8.52721C4.13523 8.18964 3.67739 8 3.2 8H2Z" stroke="black" stroke-width="1.6" stroke-linejoin="round"/>
</svg>
