<svg width="127" height="135" viewBox="0 0 127 135" fill="none" xmlns="http://www.w3.org/2000/svg">
<g opacity="0.03">
<path fill-rule="evenodd" clip-rule="evenodd" d="M93.738 -30.8821C95.3637 -29.7638 96.3276 -27.9643 96.3276 -26.0475V66.1191C96.3276 68.674 94.6251 70.944 92.0968 71.7599L8.20051 98.8346C6.30374 99.4467 4.21523 99.1466 2.58956 98.0284C0.963886 96.9101 0 95.1106 0 93.1938V1.0272C0 -1.52774 1.70254 -3.79772 4.23074 -4.61361L88.1271 -31.6883C90.0238 -32.3004 92.1124 -32.0003 93.738 -30.8821ZM12.4312 5.30268V84.9065L83.8963 61.8436V-17.7602L12.4312 5.30268Z" fill="#231815"/>
<path fill-rule="evenodd" clip-rule="evenodd" d="M120.579 -13.2861C122.205 -12.1678 123.169 -10.3683 123.169 -8.45153V83.715C123.169 86.2701 121.466 88.5401 118.938 89.3559L35.0322 116.431C33.1355 117.043 31.047 116.743 29.4214 115.624C27.7958 114.506 26.8319 112.707 26.8319 110.79V18.6232C26.8319 16.0681 28.5345 13.7981 31.0628 12.9823L114.968 -14.0924C116.865 -14.7045 118.954 -14.4043 120.579 -13.2861ZM39.2632 22.8988V102.503L110.737 79.4394V-0.164574L39.2632 22.8988Z" fill="#231815"/>
<path fill-rule="evenodd" clip-rule="evenodd" d="M147.41 4.31068C149.036 5.4289 150 7.2285 150 9.14539V101.312C150 103.867 148.297 106.137 145.769 106.953L61.8636 134.028C59.9669 134.64 57.8784 134.339 56.2528 133.221C54.6272 132.103 53.6633 130.303 53.6633 128.387V36.2287C53.6633 33.6739 55.3657 31.4041 57.8937 30.5881L141.799 3.5047C143.696 2.89245 145.785 3.19245 147.41 4.31068ZM66.0946 40.5039V120.1L137.569 97.0363V17.4332L66.0946 40.5039Z" fill="#231815"/>
</g>
</svg>
