<svg width="16" height="16" viewBox="0 0 16 16" fill="none" xmlns="http://www.w3.org/2000/svg">
<path d="M11.0166 2.33331H12.6666C12.8434 2.33331 13.013 2.40355 13.138 2.52858C13.2631 2.6536 13.3333 2.82317 13.3333 2.99998V14C13.3333 14.1768 13.2631 14.3464 13.138 14.4714C13.013 14.5964 12.8434 14.6666 12.6666 14.6666H3.33329C3.15648 14.6666 2.98691 14.5964 2.86189 14.4714C2.73686 14.3464 2.66663 14.1768 2.66663 14V2.99998C2.66663 2.82317 2.73686 2.6536 2.86189 2.52858C2.98691 2.40355 3.15648 2.33331 3.33329 2.33331H5.66663V3.33331H10.3333V2.33331H11.0166Z" stroke="black" stroke-width="1.5" stroke-linejoin="round"/>
<path d="M8.99996 6.33331L6.33329 9.00031H9.66796L6.99996 11.667M5.66663 1.33331H10.3333V3.33331H5.66663V1.33331Z" stroke="black" stroke-width="1.5" stroke-linecap="round" stroke-linejoin="round"/>
</svg>
