<svg width="12" height="15" viewBox="0 0 12 15" fill="none" xmlns="http://www.w3.org/2000/svg">
<path d="M8.66667 12.8333H3.33333C2.8029 12.8333 2.29419 12.6226 1.91912 12.2475C1.54405 11.8725 1.33333 11.3637 1.33333 10.8333V4.16665C1.33333 3.98984 1.2631 3.82027 1.13807 3.69524C1.01305 3.57022 0.843478 3.49998 0.666667 3.49998C0.489856 3.49998 0.320286 3.57022 0.195262 3.69524C0.0702379 3.82027 0 3.98984 0 4.16665V10.8333C0 11.7174 0.351189 12.5652 0.976311 13.1903C1.60143 13.8155 2.44928 14.1666 3.33333 14.1666H8.66667C8.84348 14.1666 9.01305 14.0964 9.13807 13.9714C9.2631 13.8464 9.33333 13.6768 9.33333 13.5C9.33333 13.3232 9.2631 13.1536 9.13807 13.0286C9.01305 12.9035 8.84348 12.8333 8.66667 12.8333ZM12 5.45998C11.9931 5.39874 11.9796 5.3384 11.96 5.27998V5.21998C11.9279 5.15143 11.8852 5.08842 11.8333 5.03331L7.83333 1.03331C7.77822 0.981457 7.71521 0.9387 7.64667 0.906646H7.58667L7.37333 0.833313H4.66667C4.13623 0.833313 3.62753 1.04403 3.25245 1.4191C2.87738 1.79417 2.66667 2.30288 2.66667 2.83331V9.49998C2.66667 10.0304 2.87738 10.5391 3.25245 10.9142C3.62753 11.2893 4.13623 11.5 4.66667 11.5H10C10.5304 11.5 11.0391 11.2893 11.4142 10.9142C11.7893 10.5391 12 10.0304 12 9.49998V5.45998ZM8 3.10665L9.72667 4.83331H8.66667C8.48986 4.83331 8.32029 4.76307 8.19526 4.63805C8.07024 4.51303 8 4.34346 8 4.16665V3.10665ZM10.6667 9.49998C10.6667 9.67679 10.5964 9.84636 10.4714 9.97138C10.3464 10.0964 10.1768 10.1666 10 10.1666H4.66667C4.48986 10.1666 4.32029 10.0964 4.19526 9.97138C4.07024 9.84636 4 9.67679 4 9.49998V2.83331C4 2.6565 4.07024 2.48693 4.19526 2.36191C4.32029 2.23688 4.48986 2.16665 4.66667 2.16665H6.66667V4.16665C6.66667 4.69708 6.87738 5.20579 7.25245 5.58086C7.62753 5.95593 8.13623 6.16665 8.66667 6.16665H10.6667V9.49998Z" fill="black"/>
</svg>
