<svg width="18" height="18" viewBox="0 0 18 18" fill="none" xmlns="http://www.w3.org/2000/svg">
<g clip-path="url(#clip0_201_40898)">
<path d="M16.875 9.00001C16.2538 9.00001 15.75 9.5031 15.75 10.125C15.75 11.9862 14.2362 13.5 12.375 13.5H6.75V12.0938C6.75 11.7609 6.5539 11.4588 6.24973 11.3224C5.94492 11.1902 5.58984 11.243 5.34023 11.468L2.52773 13.9992C2.3516 14.1574 2.25 14.3859 2.25 14.625C2.25 14.8641 2.35164 15.0919 2.52907 15.2522L5.34157 17.7834C5.49844 17.9262 5.70234 18 5.90625 18C6.02436 17.9998 6.14115 17.9752 6.24923 17.9275C6.55312 17.7926 6.75 17.4902 6.75 17.1563V15.75H12.375C15.4765 15.75 18 13.2265 18 10.125C18 9.50275 17.4973 9.00001 16.875 9.00001ZM5.625 4.50001H11.2184L11.25 5.90626C11.25 6.23916 11.4461 6.54118 11.7503 6.67759C11.8617 6.7254 11.9777 6.75001 12.0621 6.75001C12.2664 6.75001 12.4689 6.6753 12.6271 6.53359L15.4396 4.00234C15.648 3.84259 15.75 3.61407 15.75 3.34337C15.75 3.07267 15.6484 2.8765 15.4709 2.71618L12.6584 0.184933C12.4107 -0.0369731 12.0541 -0.0919223 11.7503 0.0410035C11.4469 0.208769 11.2184 0.510832 11.2184 0.843761L11.25 2.25001H5.625C2.52352 2.25001 0 4.77423 0 7.87501C0 8.49693 0.503789 9.00001 1.125 9.00001C1.74621 9.00001 2.25 8.49693 2.25 7.87501C2.25 6.01525 3.76523 4.50001 5.625 4.50001Z" fill="black"/>
</g>
<defs>
<clipPath id="clip0_201_40898">
<rect width="18" height="18" fill="white"/>
</clipPath>
</defs>
</svg>
