<svg width="40" height="26" viewBox="0 0 40 26" fill="none" xmlns="http://www.w3.org/2000/svg">
<path fill-rule="evenodd" clip-rule="evenodd" d="M13.9505 6.88733C13.9505 9.36043 11.9457 11.3653 9.47258 11.3653C6.99947 11.3653 4.99463 9.36043 4.99463 6.88733C4.99463 6.65344 5.01265 6.42332 5.04744 6.19841H1.37783C1.18759 6.19841 1.03337 6.35263 1.03337 6.54287V24.1102C1.03337 24.3004 1.18759 24.4547 1.37783 24.4547H5.04744C5.01265 24.2297 4.99463 23.9996 4.99463 23.7657C4.99463 21.2926 6.99947 19.2878 9.47258 19.2878C11.9457 19.2878 13.9505 21.2926 13.9505 23.7657C13.9505 23.9996 13.9325 24.2297 13.8977 24.4547H17.9118V18.9075C17.9118 17.7928 19.0451 17.3019 19.84 17.5923C20.0967 17.6861 20.3749 17.7377 20.6674 17.7377C21.9991 17.7377 23.0786 16.6582 23.0786 15.3265C23.0786 13.9949 21.9991 12.9153 20.6674 12.9153C20.3749 12.9153 20.0967 12.967 19.84 13.0607C19.0451 13.3511 17.9118 12.8602 17.9118 11.7456V6.19841H13.8977C13.9325 6.42332 13.9505 6.65344 13.9505 6.88733ZM9.47258 10.3319C11.375 10.3319 12.9171 8.78971 12.9171 6.88733C12.9171 6.47206 12.8437 6.07396 12.709 5.70532C12.618 5.45613 12.7882 5.16504 13.0535 5.16504H18.9452V11.7456C18.9452 12.0109 19.2362 12.1811 19.4854 12.0901C19.8541 11.9554 20.2522 11.882 20.6674 11.882C22.5698 11.882 24.112 13.4241 24.112 15.3265C24.112 17.2289 22.5698 18.7711 20.6674 18.7711C20.2522 18.7711 19.8541 18.6976 19.4854 18.5629C19.2362 18.4719 18.9452 18.6422 18.9452 18.9075V25.488H13.0535C12.7882 25.488 12.618 25.1969 12.709 24.9477C12.8437 24.5791 12.9171 24.181 12.9171 23.7657C12.9171 21.8633 11.375 20.3212 9.47258 20.3212C7.57019 20.3212 6.028 21.8633 6.028 23.7657C6.028 24.181 6.10149 24.5791 6.23616 24.9477C6.32719 25.1969 6.15692 25.488 5.89163 25.488H1.37783C0.616875 25.488 0 24.8711 0 24.1102V6.54287C0 5.78191 0.616875 5.16504 1.37783 5.16504H5.89163C6.15692 5.16504 6.32719 5.45613 6.23616 5.70532C6.10149 6.07396 6.028 6.47206 6.028 6.88733C6.028 8.78971 7.57019 10.3319 9.47258 10.3319Z" fill="black"/>
<path fill-rule="evenodd" clip-rule="evenodd" d="M20.6698 11.8842C22.5722 11.8842 24.1144 13.4264 24.1144 15.3287C24.1144 17.2311 22.5722 18.7733 20.6698 18.7733C20.2545 18.7733 19.8564 18.6998 19.4878 18.5652C19.2386 18.4741 18.9475 18.6444 18.9475 18.9097L18.9475 25.4902L37.8927 25.4902C38.6536 25.4902 39.2705 24.8734 39.2705 24.1124L39.2705 18.9097C39.2705 18.6444 38.9794 18.4741 38.7302 18.5652C38.3616 18.6998 37.9635 18.7733 37.5482 18.7733C35.6458 18.7733 34.1036 17.2311 34.1036 15.3287C34.1036 13.4264 35.6458 11.8842 37.5482 11.8842C37.9635 11.8842 38.3616 11.9577 38.7302 12.0923C38.9794 12.1834 39.2705 12.0131 39.2705 11.7478L39.2705 6.54508C39.2705 5.78413 38.6536 5.16725 37.8927 5.16725L32.6899 5.16725C32.4247 5.16725 32.2544 4.87616 32.3454 4.62697C32.4801 4.25833 32.5536 3.86023 32.5536 3.44496C32.5536 1.54258 31.0114 0.000392386 29.109 0.00039247C27.2066 0.000392553 25.6644 1.54258 25.6644 3.44497C25.6644 3.86023 25.7379 4.25833 25.8726 4.62697C25.9636 4.87616 25.7933 5.16725 25.5281 5.16725L18.9475 5.16725L18.9475 11.7478C18.9475 12.0131 19.2386 12.1834 19.4878 12.0923C19.8564 11.9577 20.2545 11.8842 20.6698 11.8842Z" fill="black"/>
</svg>
