<svg width="100" height="40" viewBox="0 0 100 40" fill="none" xmlns="http://www.w3.org/2000/svg">
<g clip-path="url(#clip0_1224_6431)">
<path fill-rule="evenodd" clip-rule="evenodd" d="M22.5833 -0.12329C22.982 0.150959 23.2184 0.592298 23.2184 1.0624V23.6664C23.2184 24.293 22.8008 24.8497 22.1808 25.0498L1.60506 31.6899C1.13987 31.84 0.627664 31.7664 0.228965 31.4922C-0.169733 31.2179 -0.406128 30.7766 -0.406128 30.3065V7.70251C-0.406128 7.07591 0.0114214 6.51919 0.631466 6.31909L21.2072 -0.321014C21.6724 -0.471136 22.1846 -0.39754 22.5833 -0.12329ZM2.64265 8.75108V28.274L20.1696 22.6178V3.09486L2.64265 8.75108Z" fill="#231815"/>
<path fill-rule="evenodd" clip-rule="evenodd" d="M29.166 4.19215C29.5647 4.4664 29.801 4.90774 29.801 5.37783V27.9818C29.801 28.6084 29.3835 29.1652 28.7634 29.3653L8.18546 36.0054C7.72027 36.1555 7.20808 36.0819 6.80939 35.8076C6.4107 35.5334 6.17432 35.092 6.17432 34.6219V12.0179C6.17432 11.3913 6.59189 10.8346 7.21196 10.6345L27.7899 3.9944C28.2551 3.8443 28.7673 3.9179 29.166 4.19215ZM9.2231 13.0665V32.5895L26.7523 26.9332V7.41022L9.2231 13.0665Z" fill="#231815"/>
<path fill-rule="evenodd" clip-rule="evenodd" d="M35.7465 8.50779C36.1452 8.78203 36.3816 9.22339 36.3816 9.69351V32.2975C36.3816 32.9241 35.964 33.4808 35.344 33.6809L14.766 40.321C14.3008 40.4711 13.7886 40.3975 13.39 40.1233C12.9913 39.849 12.7549 39.4077 12.7549 38.9376V16.3357C12.7549 15.7092 13.1724 15.1525 13.7924 14.9524L34.3703 8.31012C34.8355 8.15996 35.3477 8.23354 35.7465 8.50779ZM15.8037 17.3842V36.9052L33.3328 31.2489V11.7261L15.8037 17.3842Z" fill="#231815"/>
<path d="M62.9229 31.5327V11.6787H59.8091L53.9276 24.0317L47.9308 11.6787H44.817V31.5327H47.9308V18.2595L52.7744 27.9356H55.0808L59.8091 18.2595V31.5327H62.9229Z" fill="black"/>
<path d="M81.3884 31.5327V28.8279H71.3841V22.8605H79.918V20.1836H71.3841V14.3835H81.3884V11.6787H68.2703V31.5327H81.3884Z" fill="black"/>
<path d="M99.9999 17.7018C99.9999 14.2441 97.434 11.6787 93.4265 11.6787H85.6421V31.5327H88.7559V23.725H93.4265C97.434 23.725 99.9999 21.1596 99.9999 17.7018ZM96.8862 17.7018C96.8862 19.7932 95.4158 20.9923 93.2535 20.9923H88.7559V14.3835H93.2535C95.4158 14.3835 96.8862 15.6105 96.8862 17.7018Z" fill="black"/>
</g>
<defs>
<clipPath id="clip0_1224_6431">
<rect width="100" height="40" fill="white"/>
</clipPath>
</defs>
</svg>
