<svg width="18" height="18" viewBox="0 0 18 18" fill="none" xmlns="http://www.w3.org/2000/svg">
<g clip-path="url(#clip0_201_40752)">
<path d="M9.75468 10.5727L10.4671 9.86027C11.72 10.6103 13.3431 10.4719 14.3916 9.42345L16.647 7.16904C17.6959 6.1221 17.8333 4.49748 17.0818 3.24306L17.4837 2.84115L16.3212 1.67769L15.9188 2.08009C14.6661 1.32936 13.0418 1.46751 11.9936 2.51569L9.73821 4.77108C8.69052 5.81974 8.55188 7.44362 9.30237 8.69656L8.59048 9.40846C7.33778 8.65822 5.71366 8.79563 4.66499 9.84331L2.41009 12.0992C1.36143 13.1479 1.22352 14.7715 1.97425 16.0252L1.57259 16.4263L2.73555 17.5903L3.13747 17.1884C4.39115 17.9391 6.01527 17.8017 7.06345 16.7535L9.31835 14.4986C10.3673 13.4497 10.5052 11.8266 9.75468 10.5727ZM10.9024 5.93528L13.1573 3.67939C13.5752 3.26101 14.1755 3.1381 14.72 3.2937C14.1745 3.99404 15.1693 4.98789 15.8689 4.44217C16.0248 4.98691 15.9019 5.58769 15.4835 6.00755L13.2283 8.26171C12.8055 8.68403 12.1966 8.80423 11.6475 8.64101C12.041 7.97656 11.1856 7.12111 10.5219 7.51589C10.3589 6.96649 10.4796 6.35759 10.9024 5.93528ZM4.33559 15.9745C4.8818 15.2744 3.88796 14.2806 3.18762 14.8256C3.0325 14.2811 3.15541 13.6803 3.57355 13.2627L5.82796 11.0082C6.25126 10.5854 6.8604 10.465 7.40956 10.6287C7.0165 11.2941 7.87096 12.1481 8.53492 11.7536C8.69814 12.3027 8.57745 12.9121 8.1539 13.3342L5.89998 15.5891C5.48185 16.0077 4.88033 16.1304 4.33559 15.9745Z" fill="black"/>
</g>
<defs>
<clipPath id="clip0_201_40752">
<rect width="18" height="18" fill="white"/>
</clipPath>
</defs>
</svg>
