<svg width="16" height="16" viewBox="0 0 16 16" fill="none" xmlns="http://www.w3.org/2000/svg">
<path fill-rule="evenodd" clip-rule="evenodd" d="M9.75 8.75C9.19772 8.75 8.75 9.19772 8.75 9.75L8.75 12.75C8.75 13.3023 9.19772 13.75 9.75 13.75L12.75 13.75C13.3023 13.75 13.75 13.3023 13.75 12.75L13.75 9.75C13.75 9.19772 13.3023 8.75 12.75 8.75L9.75 8.75ZM9.75 2.25C9.19772 2.25 8.75 2.69771 8.75 3.25L8.75 6.25C8.75 6.80228 9.19772 7.25 9.75 7.25L12.75 7.25C13.3023 7.25 13.75 6.80228 13.75 6.25L13.75 3.25C13.75 2.69771 13.3023 2.25 12.75 2.25L9.75 2.25ZM2.25 3.24999C2.25 2.69771 2.69772 2.24999 3.25 2.24999L6.25 2.24999C6.80229 2.24999 7.25 2.69771 7.25 3.24999L7.25 6.24999C7.25 6.80228 6.80229 7.24999 6.25 7.24999L3.25 7.24999C2.69772 7.24999 2.25 6.80228 2.25 6.24999L2.25 3.24999ZM3.25 8.75C2.69772 8.75 2.25 9.19771 2.25 9.75L2.25 12.75C2.25 13.3023 2.69772 13.75 3.25 13.75L6.25 13.75C6.80229 13.75 7.25 13.3023 7.25 12.75L7.25 9.75C7.25 9.19771 6.80229 8.75 6.25 8.75L3.25 8.75Z" fill="#B3B9CB"/>
</svg>
